<?xml version="1.0" encoding="UTF-8"?><svg id="Layer_1" xmlns="http://www.w3.org/2000/svg" viewBox="0 0 489.86 201.97"><defs><style>.cls-1{fill:#004e48;}</style></defs><path class="cls-1" d="M336.91,124.02c-10.44,0-19.36-1.85-26.77-5.54-7.41-3.69-13.07-9.46-17-17.29-3.93-7.83-5.89-17.94-5.89-30.32,0-18.06,4.37-31.44,13.12-40.12,8.75-8.68,20.92-13.03,36.53-13.03,8.45,0,16.08,1.45,22.89,4.34,6.81,2.9,12.23,7.26,16.25,13.1,4.03,5.84,6.04,13.25,6.04,22.23h-19.83c0-4.99-1.07-9.21-3.21-12.65-2.14-3.44-5.1-6.06-8.87-7.86-3.78-1.8-8.1-2.69-12.97-2.69-6.76,0-12.38,1.32-16.85,3.97-4.47,2.65-7.78,6.56-9.92,11.75-2.14,5.19-3.21,11.63-3.21,19.31v3.29c0,7.79,1.07,14.27,3.21,19.46,2.14,5.19,5.42,9.08,9.84,11.68,4.42,2.6,10.07,3.89,16.92,3.89,5.17,0,9.69-.87,13.57-2.62,3.88-1.75,6.88-4.34,9.02-7.79,2.14-3.44,3.21-7.66,3.21-12.65h19.09c0,8.98-1.99,16.39-5.96,22.23-3.98,5.84-9.37,10.18-16.18,13.03-6.81,2.84-14.49,4.27-23.04,4.27Z"/><path class="cls-1" d="M444.68,124.02c-10.44,0-19.36-1.85-26.77-5.54-7.41-3.69-13.07-9.46-17-17.29-3.93-7.83-5.89-17.94-5.89-30.32,0-18.06,4.37-31.44,13.12-40.12,8.75-8.68,20.92-13.03,36.53-13.03,8.45,0,16.08,1.45,22.89,4.34,6.81,2.9,12.23,7.26,16.25,13.1,4.03,5.84,6.04,13.25,6.04,22.23h-19.83c0-4.99-1.07-9.21-3.21-12.65-2.14-3.44-5.1-6.06-8.87-7.86-3.78-1.8-8.1-2.69-12.97-2.69-6.76,0-12.38,1.32-16.85,3.97-4.47,2.65-7.78,6.56-9.92,11.75-2.14,5.19-3.21,11.63-3.21,19.31v3.29c0,7.79,1.07,14.27,3.21,19.46,2.14,5.19,5.42,9.08,9.84,11.68,4.42,2.6,10.07,3.89,16.92,3.89,5.17,0,9.69-.87,13.57-2.62,3.88-1.75,6.88-4.34,9.02-7.79,2.14-3.44,3.21-7.66,3.21-12.65h19.09c0,8.98-1.99,16.39-5.96,22.23-3.98,5.84-9.37,10.18-16.18,13.03-6.81,2.84-14.49,4.27-23.04,4.27Z"/><path class="cls-1" d="M271.15,82.02c-1.7-3.44-4.04-6.29-7.03-8.53-2.99-2.25-6.38-3.77-10.16-4.57v-.6c3.19-1.1,6.05-2.72,8.59-4.87,2.54-2.15,4.56-4.81,6.05-8.01,1.49-3.19,2.24-6.74,2.24-10.63,0-5.09-1.25-9.53-3.74-13.32-2.49-3.79-5.9-6.74-10.24-8.83-4.33-2.1-9.24-3.14-14.72-3.14h-57.9V122.22h57.9c5.88,0,11.18-1.02,15.92-3.07,4.73-2.04,8.52-5.17,11.36-9.36,2.84-4.19,4.26-9.48,4.26-15.87,0-4.49-.85-8.46-2.54-11.9Zm-67.47-45.89h34.43c3.79,0,6.85,1.05,9.19,3.14,2.34,2.1,3.51,5.34,3.51,9.73,0,2.3-.52,4.39-1.57,6.29-1.05,1.9-2.59,3.39-4.63,4.49-2.04,1.1-4.56,1.65-7.55,1.65h-33.39v-25.3Zm46.02,66.1c-2.64,2.25-6,3.37-10.09,3.37h-35.93v-27.85h34.73c3.49,0,6.35,.58,8.59,1.72,2.24,1.15,3.91,2.77,5.01,4.87,1.1,2.1,1.64,4.54,1.64,7.34,0,4.79-1.32,8.31-3.96,10.55Z"/><path class="cls-1" d="M141.73,70.87c0,39.14-31.73,70.87-70.87,70.87S0,110,0,70.87,31.73,0,70.87,0s70.87,31.73,70.87,70.87ZM73.16,21.26h-4.6c-4.21,0-7.66,3.45-7.66,7.66v4.6c0,4.21,3.45,7.66,7.66,7.66h4.6c4.21,0,7.66-3.45,7.66-7.66v-4.6c0-4.21-3.45-7.66-7.66-7.66Zm23.56,23.63h-4.6c-4.21,0-7.66,3.45-7.66,7.66v4.6c0,4.21,3.45,7.66,7.66,7.66h4.6c4.21,0,7.66-3.45,7.66-7.66v-4.6c0-4.21-3.45-7.66-7.66-7.66Zm-23.56,55.67h-4.6c-4.21,0-7.66,3.45-7.66,7.66v4.6c0,4.21,3.45,7.66,7.66,7.66h4.6c4.21,0,7.66-3.45,7.66-7.66v-4.6c0-4.21-3.45-7.66-7.66-7.66Zm7.66-43.48v-4.6c0-4.21-3.45-7.66-7.66-7.66h-28.16c-4.21,0-7.66,3.45-7.66,7.66v4.6c0,4.21,3.45,7.66,7.66,7.66h15.9v22.21h0v2.3c0,4.21,3.45,7.66,7.66,7.66h4.6c4.21,0,7.66-3.45,7.66-7.66v-4.6s0,0,0,0v-27.57s0,0,0,0Z"/><g><path class="cls-1" d="M184.26,192.58v-35.39h19.29c1.89,0,3.59,.36,5.08,1.08,1.5,.72,2.67,1.74,3.53,3.04,.86,1.31,1.29,2.84,1.29,4.59,0,1.34-.26,2.56-.77,3.66-.52,1.1-1.21,2.02-2.09,2.76s-1.87,1.3-2.97,1.68v.21c1.31,.28,2.48,.8,3.51,1.57,1.03,.77,1.84,1.75,2.42,2.94,.58,1.19,.88,2.55,.88,4.1,0,2.2-.49,4.02-1.47,5.47s-2.29,2.52-3.92,3.22c-1.63,.71-3.46,1.06-5.49,1.06h-19.29Zm6.71-20.95h10.83c1.03,0,1.9-.19,2.61-.57,.7-.38,1.24-.89,1.6-1.55s.54-1.38,.54-2.17c0-1.51-.4-2.63-1.21-3.35-.81-.72-1.87-1.08-3.17-1.08h-11.2v8.72Zm0,15.22h11.71c1.41,0,2.57-.39,3.48-1.16,.91-.77,1.37-1.99,1.37-3.64,0-.96-.19-1.81-.57-2.53-.38-.72-.96-1.28-1.73-1.68-.77-.39-1.76-.59-2.97-.59h-11.3v9.6Z"/><path class="cls-1" d="M231.77,193.2c-2.89,0-5.3-.51-7.22-1.52-1.93-1.01-3.37-2.57-4.33-4.67-.96-2.1-1.45-4.76-1.45-8s.48-5.94,1.45-8.02c.96-2.08,2.41-3.63,4.33-4.64,1.93-1.01,4.33-1.52,7.22-1.52,2.61,0,4.81,.49,6.58,1.47,1.77,.98,3.1,2.49,4,4.51,.89,2.03,1.34,4.66,1.34,7.89v1.86h-18.47c.07,1.69,.33,3.1,.77,4.26,.45,1.15,1.14,2.01,2.09,2.58,.95,.57,2.19,.85,3.74,.85,.79,0,1.53-.1,2.22-.31,.69-.21,1.29-.52,1.81-.95,.52-.43,.92-.97,1.21-1.62,.29-.65,.44-1.41,.44-2.27h6.19c0,1.72-.3,3.22-.9,4.49-.6,1.27-1.44,2.32-2.53,3.15-1.08,.83-2.35,1.44-3.79,1.86-1.45,.41-3.01,.62-4.7,.62Zm-6.45-17.08h11.81c0-1.14-.13-2.1-.39-2.89-.26-.79-.62-1.44-1.08-1.96-.46-.52-1.02-.89-1.68-1.11-.65-.22-1.39-.33-2.22-.33-1.34,0-2.47,.22-3.38,.67-.91,.45-1.61,1.14-2.09,2.06-.48,.93-.81,2.12-.98,3.56Z"/><path class="cls-1" d="M249.05,192.58v-27.14h5.26l.52,4.28h.36c.34-.86,.77-1.66,1.26-2.4,.5-.74,1.14-1.34,1.93-1.81,.79-.46,1.75-.7,2.89-.7,.55,0,1.06,.05,1.52,.16,.46,.1,.82,.21,1.06,.31v5.93h-1.91c-1.07,0-2.01,.15-2.84,.44-.83,.29-1.52,.75-2.09,1.37s-.99,1.39-1.26,2.32c-.28,.93-.41,2.01-.41,3.25v13.98h-6.29Z"/><path class="cls-1" d="M272.22,201.97c-1.2,0-2.34-.24-3.41-.72s-1.93-1.2-2.58-2.14c-.65-.95-.98-2.11-.98-3.48,0-1.51,.44-2.71,1.32-3.59s1.85-1.54,2.92-1.99c-.79-.41-1.44-.96-1.93-1.65-.5-.69-.75-1.51-.75-2.48,0-1.31,.48-2.35,1.44-3.12s2.06-1.28,3.3-1.52c-1.27-.79-2.24-1.81-2.92-3.04-.67-1.24-1.01-2.65-1.01-4.23,0-1.89,.46-3.52,1.37-4.88,.91-1.36,2.24-2.42,4-3.17,1.75-.76,3.87-1.13,6.35-1.13,1,0,1.96,.07,2.89,.21,.93,.14,1.77,.34,2.53,.62,1.2-.72,2.03-1.54,2.48-2.45,.45-.91,.69-1.66,.72-2.24h6.14c0,1.2-.23,2.27-.7,3.2-.46,.93-1.11,1.69-1.93,2.3-.83,.6-1.82,1.04-2.99,1.32,.86,.76,1.51,1.67,1.96,2.73,.45,1.07,.67,2.24,.67,3.51,0,1.89-.44,3.53-1.32,4.9-.88,1.38-2.17,2.44-3.87,3.2s-3.79,1.13-6.27,1.13h-4.18c-.72,0-1.28,.15-1.68,.46s-.59,.74-.59,1.29c0,.45,.18,.84,.54,1.19,.36,.34,.87,.52,1.52,.52h11.87c2.03,0,3.71,.66,5.03,1.99,1.32,1.33,1.99,3.02,1.99,5.08,0,1.55-.4,2.94-1.21,4.18-.81,1.24-1.93,2.22-3.38,2.94-1.44,.72-3.13,1.08-5.06,1.08h-12.28Zm2.27-4.54h9.96c.65,0,1.23-.11,1.73-.33,.5-.22,.89-.54,1.19-.96,.29-.41,.44-.88,.44-1.39,0-.89-.28-1.57-.85-2.01-.57-.45-1.26-.67-2.09-.67h-10.37c-.83,0-1.51,.25-2.06,.75-.55,.5-.83,1.14-.83,1.93s.27,1.44,.8,1.93c.53,.5,1.23,.75,2.09,.75Zm4.9-18.62c1.82,0,3.19-.42,4.1-1.26,.91-.84,1.37-2.02,1.37-3.53s-.46-2.68-1.37-3.51c-.91-.83-2.28-1.24-4.1-1.24s-3.19,.41-4.1,1.24c-.91,.83-1.37,2-1.37,3.51,0,1,.2,1.86,.59,2.58,.39,.72,1,1.27,1.81,1.65,.81,.38,1.83,.57,3.07,.57Z"/><path class="cls-1" d="M308.88,193.2c-2.89,0-5.3-.51-7.22-1.52-1.93-1.01-3.37-2.57-4.33-4.67-.96-2.1-1.45-4.76-1.45-8s.48-5.94,1.45-8.02c.96-2.08,2.41-3.63,4.33-4.64,1.93-1.01,4.33-1.52,7.22-1.52,2.61,0,4.81,.49,6.58,1.47,1.77,.98,3.1,2.49,4,4.51,.89,2.03,1.34,4.66,1.34,7.89v1.86h-18.47c.07,1.69,.33,3.1,.77,4.26,.45,1.15,1.14,2.01,2.09,2.58,.95,.57,2.19,.85,3.74,.85,.79,0,1.53-.1,2.22-.31,.69-.21,1.29-.52,1.81-.95,.52-.43,.92-.97,1.21-1.62,.29-.65,.44-1.41,.44-2.27h6.19c0,1.72-.3,3.22-.9,4.49-.6,1.27-1.44,2.32-2.53,3.15-1.08,.83-2.35,1.44-3.79,1.86-1.45,.41-3.01,.62-4.7,.62Zm-6.45-17.08h11.81c0-1.14-.13-2.1-.39-2.89-.26-.79-.62-1.44-1.08-1.96-.46-.52-1.02-.89-1.68-1.11-.65-.22-1.39-.33-2.22-.33-1.34,0-2.47,.22-3.38,.67-.91,.45-1.61,1.14-2.09,2.06-.48,.93-.81,2.12-.98,3.56Z"/><path class="cls-1" d="M326.16,192.58v-27.14h5.26l.52,3.61h.36c.62-.83,1.35-1.56,2.19-2.19,.84-.64,1.81-1.13,2.89-1.5,1.08-.36,2.28-.54,3.59-.54,1.72,0,3.24,.31,4.57,.93,1.32,.62,2.36,1.62,3.12,2.99,.76,1.38,1.13,3.22,1.13,5.52v18.31h-6.35v-17.18c0-.96-.11-1.76-.33-2.4s-.55-1.15-.98-1.55-.95-.68-1.57-.85c-.62-.17-1.31-.26-2.06-.26-1.13,0-2.16,.28-3.07,.83-.91,.55-1.63,1.31-2.17,2.27-.53,.96-.8,2.08-.8,3.35v15.79h-6.29Z"/></g></svg>