<svg width="564" height="200" viewBox="0 0 564 200" fill="none" xmlns="http://www.w3.org/2000/svg">
<g clip-path="url(#clip0_1_213)">
<path d="M333.013 122.608C322.694 122.608 313.877 120.779 306.553 117.131C299.228 113.483 293.634 107.779 289.749 100.038C285.865 92.2969 283.927 82.302 283.927 70.063C283.927 52.2086 288.247 38.981 296.896 30.3998C305.545 21.8187 317.574 17.5182 333.003 17.5182C341.355 17.5182 348.897 18.9517 355.628 21.8088C362.36 24.6758 367.717 28.9861 371.69 34.7596C375.674 40.5331 377.661 47.8587 377.661 56.7365H358.06C358.06 51.8033 357.002 47.6314 354.887 44.2305C352.772 40.8297 349.846 38.2395 346.12 36.46C342.383 34.6805 338.113 33.8007 333.3 33.8007C326.618 33.8007 321.063 35.1056 316.645 37.7255C312.226 40.3453 308.955 44.2108 306.839 49.3417C304.724 54.4726 303.667 60.8392 303.667 68.4318V71.6843C303.667 79.3856 304.724 85.7918 306.839 90.9227C308.955 96.0536 312.197 99.8993 316.566 102.47C320.934 105.04 326.519 106.315 333.29 106.315C338.4 106.315 342.868 105.455 346.703 103.725C350.538 101.995 353.503 99.4347 355.619 96.024C357.734 92.6231 358.791 88.4512 358.791 83.518H377.661C377.661 92.3958 375.694 99.7214 371.77 105.495C367.836 111.268 362.508 115.559 355.777 118.376C349.045 121.184 341.454 122.598 333.003 122.598L333.013 122.608Z" fill="#004E48"/>
<path d="M439.537 122.608C429.217 122.608 420.4 120.779 413.076 117.131C405.752 113.483 400.157 107.779 396.273 100.038C392.388 92.2969 390.451 82.302 390.451 70.063C390.451 52.2086 394.77 38.981 403.419 30.3998C412.068 21.8187 424.097 17.5182 439.527 17.5182C447.879 17.5182 455.421 18.9517 462.152 21.8088C468.883 24.6758 474.24 28.9861 478.214 34.7596C482.197 40.5331 484.184 47.8587 484.184 56.7365H464.583C464.583 51.8033 463.526 47.6314 461.411 44.2305C459.295 40.8297 456.37 38.2395 452.643 36.46C448.907 34.6805 444.637 33.8007 439.823 33.8007C433.141 33.8007 427.586 35.1056 423.168 37.7255C418.75 40.3453 415.478 44.2108 413.363 49.3417C411.248 54.4726 410.19 60.8392 410.19 68.4318V71.6843C410.19 79.3856 411.248 85.7918 413.363 90.9227C415.478 96.0536 418.72 99.8993 423.089 102.47C427.458 105.04 433.043 106.315 439.813 106.315C444.923 106.315 449.391 105.455 453.226 103.725C457.061 101.995 460.027 99.4347 462.142 96.024C464.257 92.6231 465.315 88.4512 465.315 83.518H484.184C484.184 92.3958 482.217 99.7214 478.293 105.495C474.359 111.268 469.031 115.559 462.3 118.376C455.569 121.184 447.978 122.598 439.527 122.598L439.537 122.608Z" fill="#004E48"/>
<path d="M268.014 81.086C266.333 77.6852 264.02 74.8677 261.065 72.6532C258.11 70.4288 254.759 68.9261 251.022 68.1352V67.542C254.176 66.4546 257.002 64.853 259.513 62.7275C262.024 60.602 264.02 57.9723 265.493 54.8087C266.966 51.655 267.707 48.1455 267.707 44.2998C267.707 39.2677 266.472 34.8783 264.01 31.1314C261.549 27.3846 258.179 24.4682 253.889 22.402C249.609 20.3259 244.756 19.2977 239.339 19.2977H182.109V120.828H239.339C245.151 120.828 250.39 119.82 255.075 117.793C259.75 115.776 263.496 112.682 266.304 108.54C269.111 104.398 270.514 99.1678 270.514 92.8505C270.514 88.4117 269.674 84.4869 268.004 81.086H268.014ZM201.324 35.7186H235.356C239.102 35.7186 242.127 36.7566 244.439 38.8228C246.752 40.8989 247.909 44.102 247.909 48.442C247.909 50.7158 247.395 52.782 246.357 54.6604C245.319 56.5388 243.797 58.0118 241.781 59.0993C239.764 60.1868 237.273 60.7305 234.318 60.7305H201.314V35.7186H201.324ZM246.812 101.066C244.202 103.29 240.881 104.398 236.838 104.398H201.324V76.8647H235.652C239.102 76.8647 241.929 77.4381 244.143 78.5651C246.357 79.702 248.008 81.3035 249.095 83.3796C250.182 85.4557 250.716 87.8679 250.716 90.636C250.716 95.3715 249.411 98.8514 246.802 101.066H246.812Z" fill="#004E48"/>
<path d="M140.091 70.063C140.091 108.757 108.728 140.126 70.0404 140.126C31.3531 140.126 0 108.747 0 70.063C0 31.3786 31.363 0 70.0503 0C108.738 0 140.101 31.3687 140.101 70.063H140.091ZM72.3138 21.0179H67.767C63.6057 21.0179 60.1956 24.4286 60.1956 28.5907V33.1383C60.1956 37.3004 63.6057 40.7111 67.767 40.7111H72.3138C76.4751 40.7111 79.8852 37.3004 79.8852 33.1383V28.5907C79.8852 24.4286 76.4751 21.0179 72.3138 21.0179V21.0179ZM95.6013 44.3788H91.0545C86.8932 44.3788 83.4831 47.7895 83.4831 51.9516V56.4992C83.4831 60.6613 86.8932 64.072 91.0545 64.072H95.6013C99.7626 64.072 103.173 60.6613 103.173 56.4992V51.9516C103.173 47.7895 99.7626 44.3788 95.6013 44.3788ZM72.3138 99.4149H67.767C63.6057 99.4149 60.1956 102.826 60.1956 106.988V111.535C60.1956 115.697 63.6057 119.108 67.767 119.108H72.3138C76.4751 119.108 79.8852 115.697 79.8852 111.535V106.988C79.8852 102.826 76.4751 99.4149 72.3138 99.4149ZM79.8852 56.43V51.8824C79.8852 47.7203 76.4751 44.3096 72.3138 44.3096H44.4795C40.3182 44.3096 36.9081 47.7203 36.9081 51.8824V56.43C36.9081 60.5921 40.3182 64.0028 44.4795 64.0028H60.1956V85.9599V88.2337C60.1956 92.3958 63.6057 95.8065 67.767 95.8065H72.3138C76.4751 95.8065 79.8852 92.3958 79.8852 88.2337V83.6861V56.43V56.43Z" fill="#004E48"/>
<path d="M182.178 190.387V155.4H196.204C199.743 155.4 202.767 156.033 205.278 157.288C207.788 158.544 209.736 160.462 211.09 163.022C212.454 165.593 213.126 168.875 213.126 172.889C213.126 176.902 212.444 180.145 211.09 182.735C209.726 185.315 207.788 187.243 205.278 188.499C202.767 189.754 199.733 190.387 196.204 190.387H182.178ZM188.81 184.722H196.204C197.835 184.722 199.278 184.485 200.533 184.011C201.789 183.536 202.846 182.834 203.696 181.895C204.546 180.956 205.189 179.789 205.634 178.375C206.078 176.962 206.296 175.321 206.296 173.452V172.384C206.296 170.476 206.078 168.825 205.634 167.412C205.189 165.998 204.546 164.831 203.696 163.892C202.846 162.953 201.789 162.251 200.533 161.777C199.278 161.302 197.835 161.065 196.204 161.065H188.81V184.732V184.722Z" fill="#004E48"/>
<path d="M218.305 190.387V163.556H223.504L224.018 167.787H224.374C224.71 166.937 225.135 166.146 225.62 165.415C226.114 164.683 226.747 164.09 227.527 163.625C228.308 163.171 229.257 162.933 230.384 162.933C230.928 162.933 231.432 162.983 231.886 163.091C232.341 163.19 232.697 163.299 232.934 163.398V169.26H231.046C229.989 169.26 229.059 169.409 228.239 169.695C227.419 169.982 226.737 170.437 226.173 171.05C225.61 171.663 225.195 172.424 224.928 173.343C224.651 174.263 224.523 175.33 224.523 176.556V190.377H218.305V190.387Z" fill="#004E48"/>
<path d="M243.53 191C242.779 191 241.929 190.911 240.95 190.723C239.982 190.535 239.043 190.189 238.143 189.675C237.244 189.161 236.502 188.41 235.929 187.411C235.356 186.413 235.059 185.088 235.059 183.457C235.059 181.618 235.465 180.096 236.285 178.89C237.105 177.683 238.252 176.734 239.725 176.032C241.207 175.33 242.967 174.846 245.033 174.549C247.098 174.253 249.342 174.114 251.794 174.114V171.92C251.794 171.139 251.675 170.437 251.438 169.824C251.2 169.211 250.766 168.727 250.133 168.371C249.5 168.015 248.561 167.837 247.306 167.837C246.051 167.837 245.062 167.985 244.351 168.292C243.639 168.598 243.145 168.974 242.868 169.409C242.591 169.854 242.463 170.308 242.463 170.783V171.495H236.443C236.404 171.327 236.394 171.159 236.394 170.981V170.368C236.394 168.835 236.848 167.511 237.768 166.393C238.687 165.276 239.962 164.416 241.593 163.823C243.224 163.23 245.112 162.933 247.257 162.933C249.708 162.933 251.714 163.269 253.296 163.952C254.877 164.634 256.054 165.603 256.844 166.858C257.625 168.114 258.021 169.646 258.021 171.445V184.09C258.021 184.732 258.208 185.197 258.584 185.464C258.96 185.741 259.365 185.869 259.81 185.869H261.441V190.15C261.105 190.288 260.61 190.446 259.958 190.634C259.315 190.822 258.515 190.911 257.566 190.911C256.676 190.911 255.895 190.763 255.194 190.476C254.492 190.189 253.909 189.774 253.434 189.23C252.96 188.687 252.614 188.044 252.416 187.293H252.11C251.537 188.005 250.845 188.647 250.044 189.201C249.243 189.754 248.314 190.199 247.237 190.506C246.169 190.812 244.934 190.96 243.54 190.96L243.53 191ZM245.418 185.899C246.436 185.899 247.346 185.75 248.146 185.444C248.947 185.138 249.609 184.712 250.133 184.169C250.657 183.625 251.072 182.963 251.359 182.182C251.645 181.401 251.794 180.55 251.794 179.631V178.405C249.925 178.405 248.196 178.524 246.614 178.761C245.033 178.998 243.777 179.443 242.838 180.086C241.899 180.728 241.435 181.648 241.435 182.844C241.435 183.457 241.583 183.991 241.87 184.446C242.156 184.9 242.601 185.266 243.194 185.513C243.787 185.76 244.529 185.899 245.408 185.899H245.418Z" fill="#004E48"/>
<path d="M265.513 190.387V163.556H270.712L271.226 167.125H271.582C272.155 166.304 272.827 165.583 273.569 164.96C274.32 164.327 275.17 163.843 276.148 163.477C277.117 163.121 278.175 162.943 279.331 162.943C280.893 162.943 282.287 163.269 283.512 163.912C284.738 164.555 285.687 165.632 286.369 167.125H286.725C287.298 166.304 287.98 165.583 288.761 164.96C289.542 164.327 290.441 163.843 291.459 163.477C292.477 163.121 293.584 162.943 294.771 162.943C296.372 162.943 297.775 163.23 299.001 163.813C300.227 164.396 301.195 165.345 301.907 166.67C302.619 167.995 302.975 169.765 302.975 171.979V190.387H296.757V173.254C296.757 172.335 296.658 171.564 296.451 170.931C296.243 170.298 295.967 169.814 295.611 169.448C295.255 169.082 294.81 168.825 294.286 168.657C293.762 168.489 293.189 168.4 292.576 168.4C291.588 168.4 290.708 168.677 289.927 169.221C289.146 169.765 288.524 170.516 288.069 171.465C287.614 172.414 287.377 173.521 287.377 174.777V190.387H281.16V173.254C281.16 172.335 281.061 171.564 280.853 170.931C280.646 170.298 280.369 169.814 280.013 169.448C279.657 169.092 279.213 168.825 278.689 168.657C278.165 168.489 277.592 168.4 276.979 168.4C275.99 168.4 275.101 168.677 274.3 169.221C273.5 169.765 272.877 170.516 272.412 171.465C271.958 172.414 271.72 173.521 271.72 174.777V190.387H265.503H265.513Z" fill="#004E48"/>
<path d="M309.053 190.387V163.556H314.252L314.766 167.125H315.122C315.696 166.304 316.368 165.583 317.109 164.96C317.86 164.327 318.71 163.843 319.689 163.477C320.658 163.121 321.715 162.943 322.872 162.943C324.433 162.943 325.827 163.269 327.053 163.912C328.278 164.555 329.227 165.632 329.909 167.125H330.265C330.838 166.304 331.52 165.583 332.301 164.96C333.082 164.327 333.982 163.843 335 163.477C336.018 163.121 337.125 162.943 338.311 162.943C339.912 162.943 341.316 163.23 342.541 163.813C343.767 164.396 344.736 165.345 345.447 166.67C346.159 167.995 346.515 169.765 346.515 171.979V190.387H340.298V173.254C340.298 172.335 340.199 171.564 339.991 170.931C339.784 170.298 339.507 169.814 339.151 169.448C338.795 169.082 338.35 168.825 337.827 168.657C337.303 168.489 336.729 168.4 336.117 168.4C335.128 168.4 334.248 168.677 333.468 169.221C332.687 169.765 332.064 170.516 331.609 171.465C331.155 172.414 330.917 173.521 330.917 174.777V190.387H324.7V173.254C324.7 172.335 324.601 171.564 324.394 170.931C324.186 170.298 323.909 169.814 323.554 169.448C323.198 169.092 322.753 168.825 322.229 168.657C321.705 168.489 321.132 168.4 320.519 168.4C319.531 168.4 318.641 168.677 317.841 169.221C317.04 169.765 316.417 170.516 315.953 171.465C315.498 172.414 315.261 173.521 315.261 174.777V190.387H309.043H309.053Z" fill="#004E48"/>
<path d="M364.07 191C361.213 191 358.831 190.496 356.933 189.497C355.025 188.499 353.602 186.957 352.653 184.88C351.704 182.804 351.22 180.175 351.22 176.972C351.22 173.768 351.694 171.099 352.653 169.043C353.602 166.987 355.035 165.454 356.933 164.456C358.841 163.457 361.213 162.953 364.07 162.953C366.649 162.953 368.824 163.437 370.574 164.406C372.323 165.375 373.638 166.868 374.527 168.865C375.407 170.872 375.852 173.472 375.852 176.665V178.504H357.595C357.665 180.175 357.922 181.569 358.356 182.715C358.801 183.852 359.483 184.703 360.422 185.266C361.361 185.83 362.587 186.106 364.119 186.106C364.9 186.106 365.631 186.008 366.313 185.8C366.995 185.592 367.588 185.286 368.102 184.861C368.616 184.436 369.012 183.902 369.298 183.259C369.585 182.617 369.733 181.865 369.733 181.015H375.852C375.852 182.715 375.555 184.198 374.962 185.454C374.369 186.709 373.539 187.747 372.461 188.568C371.394 189.389 370.139 189.992 368.715 190.407C367.282 190.812 365.74 191.02 364.07 191.02V191ZM357.694 174.114H369.368C369.368 172.987 369.239 172.038 368.982 171.257C368.725 170.476 368.369 169.834 367.915 169.32C367.46 168.806 366.906 168.44 366.254 168.222C365.612 168.005 364.88 167.896 364.06 167.896C362.735 167.896 361.618 168.114 360.719 168.558C359.819 169.003 359.127 169.686 358.653 170.595C358.179 171.514 357.852 172.691 357.684 174.114H357.694Z" fill="#004E48"/>
<path d="M380.863 190.387V163.556H386.062L386.576 167.125H386.932C387.545 166.304 388.266 165.583 389.097 164.96C389.927 164.327 390.886 163.843 391.953 163.477C393.021 163.121 394.207 162.943 395.502 162.943C397.202 162.943 398.704 163.25 400.019 163.863C401.324 164.476 402.352 165.464 403.103 166.819C403.854 168.183 404.22 170.002 404.22 172.276V190.377H397.943V173.393C397.943 172.444 397.834 171.653 397.617 171.02C397.4 170.387 397.073 169.883 396.648 169.488C396.223 169.092 395.709 168.816 395.096 168.647C394.484 168.479 393.802 168.39 393.06 168.39C391.943 168.39 390.925 168.667 390.026 169.211C389.126 169.755 388.415 170.506 387.881 171.455C387.357 172.404 387.09 173.511 387.09 174.767V190.377H380.873L380.863 190.387Z" fill="#004E48"/>
<path d="M434.268 191C432.331 191 430.482 190.792 428.713 190.367C426.944 189.942 425.382 189.28 424.018 188.38C422.654 187.481 421.586 186.354 420.806 185.019C420.025 183.684 419.629 182.083 419.629 180.254C419.629 180.046 419.629 179.848 419.659 179.641C419.679 179.433 419.689 179.285 419.689 179.186H426.37C426.37 179.255 426.37 179.384 426.341 179.572C426.321 179.759 426.311 179.918 426.311 180.056C426.311 181.173 426.637 182.142 427.28 182.943C427.922 183.744 428.861 184.357 430.087 184.782C431.313 185.207 432.756 185.424 434.426 185.424C435.543 185.424 436.541 185.355 437.411 185.217C438.281 185.078 439.022 184.89 439.655 184.633C440.288 184.376 440.802 184.07 441.207 183.714C441.612 183.358 441.909 182.963 442.096 182.518C442.284 182.073 442.373 181.598 442.373 181.084C442.373 180.096 442.067 179.285 441.454 178.632C440.841 177.98 440.021 177.446 438.983 177.001C437.945 176.556 436.769 176.161 435.464 175.805C434.149 175.449 432.815 175.083 431.431 174.708C430.057 174.332 428.713 173.887 427.398 173.353C426.084 172.829 424.918 172.187 423.88 171.445C422.842 170.704 422.021 169.755 421.409 168.618C420.796 167.481 420.489 166.107 420.489 164.515C420.489 162.923 420.835 161.45 421.537 160.234C422.239 159.008 423.217 158 424.492 157.199C425.768 156.399 427.25 155.805 428.95 155.41C430.65 155.024 432.499 154.827 434.505 154.827C436.373 154.827 438.133 155.024 439.784 155.41C441.434 155.805 442.887 156.408 444.143 157.249C445.398 158.079 446.386 159.137 447.098 160.412C447.81 161.688 448.165 163.21 448.165 164.98V165.593H441.582V165.079C441.582 164.09 441.286 163.26 440.693 162.577C440.1 161.895 439.27 161.371 438.192 160.996C437.125 160.62 435.869 160.432 434.446 160.432C432.914 160.432 431.609 160.58 430.522 160.867C429.435 161.154 428.604 161.579 428.021 162.142C427.448 162.706 427.151 163.388 427.151 164.209C427.151 165.029 427.458 165.771 428.071 166.354C428.683 166.937 429.504 167.422 430.542 167.837C431.58 168.242 432.756 168.618 434.061 168.954C435.365 169.29 436.71 169.656 438.093 170.051C439.467 170.447 440.811 170.892 442.126 171.406C443.441 171.92 444.607 172.552 445.645 173.314C446.683 174.075 447.503 175.024 448.116 176.141C448.729 177.258 449.035 178.603 449.035 180.175C449.035 182.795 448.403 184.9 447.128 186.502C445.853 188.103 444.103 189.26 441.879 189.972C439.655 190.684 437.115 191.04 434.258 191.04L434.268 191Z" fill="#004E48"/>
<path d="M461.015 191C460.264 191 459.414 190.911 458.435 190.723C457.457 190.535 456.528 190.189 455.628 189.675C454.729 189.161 453.987 188.41 453.414 187.411C452.841 186.413 452.544 185.088 452.544 183.457C452.544 181.618 452.949 180.096 453.77 178.89C454.59 177.683 455.737 176.734 457.21 176.032C458.682 175.33 460.452 174.846 462.517 174.549C464.583 174.253 466.827 174.114 469.278 174.114V171.92C469.278 171.139 469.16 170.437 468.923 169.824C468.685 169.211 468.25 168.727 467.618 168.371C466.985 168.015 466.046 167.837 464.791 167.837C463.536 167.837 462.547 167.985 461.835 168.292C461.124 168.598 460.63 168.974 460.353 169.409C460.076 169.854 459.948 170.308 459.948 170.783V171.495H453.928C453.888 171.327 453.879 171.159 453.879 170.981V170.368C453.879 168.835 454.333 167.511 455.252 166.393C456.172 165.276 457.447 164.416 459.078 163.823C460.709 163.23 462.597 162.933 464.741 162.933C467.193 162.933 469.199 163.269 470.781 163.952C472.362 164.634 473.539 165.603 474.329 166.858C475.11 168.114 475.506 169.646 475.506 171.445V184.09C475.506 184.732 475.693 185.197 476.069 185.464C476.445 185.741 476.85 185.869 477.295 185.869H478.925V190.15C478.589 190.288 478.095 190.446 477.443 190.634C476.8 190.822 476 190.911 475.051 190.911C474.161 190.911 473.38 190.763 472.679 190.476C471.977 190.189 471.394 189.774 470.919 189.23C470.445 188.687 470.099 188.044 469.901 187.293H469.595C469.021 188.005 468.329 188.647 467.529 189.201C466.728 189.754 465.799 190.199 464.722 190.506C463.654 190.812 462.419 190.96 461.025 190.96L461.015 191ZM462.903 185.899C463.921 185.899 464.83 185.75 465.631 185.444C466.432 185.138 467.094 184.712 467.618 184.169C468.142 183.625 468.557 182.963 468.843 182.182C469.13 181.401 469.278 180.55 469.278 179.631V178.405C467.41 178.405 465.68 178.524 464.099 178.761C462.517 178.998 461.262 179.443 460.323 180.086C459.384 180.728 458.92 181.648 458.92 182.844C458.92 183.457 459.068 183.991 459.355 184.446C459.641 184.9 460.086 185.266 460.679 185.513C461.272 185.76 462.013 185.899 462.893 185.899H462.903Z" fill="#004E48"/>
<path d="M482.85 190.387V163.556H488.049L488.563 167.125H488.919C489.531 166.304 490.253 165.583 491.083 164.96C491.914 164.327 492.872 163.843 493.94 163.477C495.007 163.121 496.193 162.943 497.488 162.943C499.188 162.943 500.691 163.25 502.005 163.863C503.31 164.476 504.338 165.464 505.089 166.819C505.841 168.183 506.206 170.002 506.206 172.276V190.377H499.93V173.393C499.93 172.444 499.821 171.653 499.604 171.02C499.386 170.387 499.06 169.883 498.635 169.488C498.21 169.092 497.696 168.816 497.083 168.647C496.47 168.479 495.788 168.39 495.047 168.39C493.93 168.39 492.912 168.667 492.012 169.211C491.113 169.755 490.401 170.506 489.867 171.455C489.344 172.404 489.077 173.511 489.077 174.767V190.377H482.86L482.85 190.387Z" fill="#004E48"/>
<path d="M520.993 191C518.819 191 516.931 190.506 515.33 189.517C513.728 188.528 512.503 187.006 511.633 184.93C510.763 182.854 510.328 180.185 510.328 176.922C510.328 173.66 510.773 171.05 511.653 168.993C512.532 166.937 513.758 165.415 515.32 164.426C516.881 163.437 518.651 162.943 520.628 162.943C521.853 162.943 522.97 163.082 523.988 163.348C525.006 163.625 525.906 164.041 526.687 164.594C527.468 165.148 528.13 165.84 528.673 166.66H528.98V153.502H535.197V190.377H530.047L529.533 186.808H529.178C528.328 188.202 527.181 189.25 525.738 189.942C524.295 190.634 522.703 190.99 520.974 190.99L520.993 191ZM522.931 185.642C524.354 185.642 525.51 185.315 526.4 184.673C527.28 184.03 527.942 183.091 528.367 181.865C528.792 180.639 529.01 179.147 529.01 177.377V176.715C529.01 175.39 528.891 174.203 528.654 173.146C528.416 172.088 528.051 171.208 527.557 170.496C527.062 169.784 526.44 169.241 525.669 168.865C524.908 168.489 523.998 168.301 522.941 168.301C521.408 168.301 520.193 168.598 519.293 169.191C518.394 169.784 517.741 170.704 517.356 171.949C516.96 173.195 516.773 174.767 516.773 176.665V177.377C516.773 179.245 516.97 180.798 517.356 182.014C517.741 183.23 518.394 184.149 519.293 184.742C520.193 185.335 521.408 185.632 522.941 185.632L522.931 185.642Z" fill="#004E48"/>
<path d="M552.218 191C549.361 191 546.979 190.496 545.081 189.497C543.174 188.499 541.75 186.957 540.801 184.88C539.853 182.804 539.368 180.175 539.368 176.972C539.368 173.768 539.843 171.099 540.801 169.043C541.75 166.987 543.184 165.454 545.081 164.456C546.989 163.457 549.361 162.953 552.218 162.953C554.798 162.953 556.972 163.437 558.722 164.406C560.471 165.375 561.786 166.868 562.675 168.865C563.555 170.872 564 173.472 564 176.665V178.504H545.744C545.813 180.175 546.07 181.569 546.505 182.715C546.949 183.852 547.631 184.703 548.57 185.266C549.509 185.83 550.735 186.106 552.267 186.106C553.048 186.106 553.78 186.008 554.462 185.8C555.144 185.592 555.737 185.286 556.251 184.861C556.765 184.436 557.16 183.902 557.447 183.259C557.733 182.617 557.882 181.865 557.882 181.015H564C564 182.715 563.703 184.198 563.11 185.454C562.517 186.709 561.687 187.747 560.61 188.568C559.542 189.389 558.287 189.992 556.863 190.407C555.43 190.812 553.888 191.02 552.218 191.02V191ZM545.842 174.114H557.516C557.516 172.987 557.387 172.038 557.13 171.257C556.873 170.476 556.517 169.834 556.063 169.32C555.608 168.806 555.055 168.44 554.402 168.222C553.76 168.005 553.028 167.896 552.208 167.896C550.883 167.896 549.766 168.114 548.867 168.558C547.968 169.003 547.276 169.686 546.801 170.595C546.327 171.514 546.001 172.691 545.832 174.114H545.842Z" fill="#004E48"/>
</g>
<defs>
<clipPath id="clip0_1_213">
<rect width="564" height="191" fill="white"/>
</clipPath>
</defs>
</svg>
